<svg version="1.0" preserveAspectRatio="xMidYMid meet" viewBox="0 124.76879553600001 299.4274647887324 197.04749295" zoomAndPan="magnify" xmlns:xlink="http://www.w3.org/1999/xlink" xmlns="http://www.w3.org/2000/svg" style="max-height: 500px" width="299.4274647887324" height="197.04749295"><defs><clipPath id="9b98f1c43d"><path clip-rule="nonzero" d="M 0.140625 126.316406 L 297.246094 126.316406 L 297.246094 323.058594 L 0.140625 323.058594 Z M 0.140625 126.316406"/></clipPath><clipPath id="9aefed3f0e"><path clip-rule="nonzero" d="M 89.273438 174.03125 L 193 174.03125 L 193 276 L 89.273438 276 Z M 89.273438 174.03125"/></clipPath><clipPath id="0501d53a7e"><path clip-rule="nonzero" d="M 142 226 L 208.308594 226 L 208.308594 292.316406 L 142 292.316406 Z M 142 226"/></clipPath></defs><g clip-path="url(#9b98f1c43d)"><path fill-rule="nonzero" fill-opacity="1" d="M 0.140625 126.316406 L 297.558594 126.316406 L 297.558594 323.058594 L 0.140625 323.058594 Z M 0.140625 126.316406" fill="#cac2c2"/></g><path fill-rule="nonzero" fill-opacity="1" d="M 141.183594 182.859375 L 139.859375 179.175781 C 139.75 178.644531 139.554688 178.144531 139.273438 177.679688 C 138.992188 177.214844 138.644531 176.808594 138.222656 176.464844 C 137.800781 176.121094 137.335938 175.859375 136.820312 175.675781 C 136.308594 175.492188 135.78125 175.402344 135.238281 175.402344 L 111.882812 175.402344 C 111.339844 175.402344 110.8125 175.496094 110.300781 175.679688 C 109.789062 175.863281 109.324219 176.125 108.902344 176.46875 C 108.480469 176.8125 108.132812 177.21875 107.847656 177.683594 C 107.566406 178.148438 107.371094 178.644531 107.261719 179.175781 L 105.957031 182.859375 C 105.882812 183.207031 105.753906 183.535156 105.570312 183.839844 C 105.382812 184.144531 105.152344 184.410156 104.875 184.632812 C 104.597656 184.859375 104.292969 185.03125 103.953125 185.152344 C 103.617188 185.269531 103.273438 185.328125 102.914062 185.332031 L 95.296875 185.332031 C 94.992188 185.332031 94.691406 185.359375 94.390625 185.417969 C 94.09375 185.480469 93.800781 185.566406 93.519531 185.683594 C 93.238281 185.800781 92.972656 185.941406 92.71875 186.113281 C 92.464844 186.28125 92.230469 186.472656 92.015625 186.691406 C 91.800781 186.90625 91.605469 187.140625 91.4375 187.394531 C 91.269531 187.648438 91.125 187.914062 91.007812 188.195312 C 90.890625 188.476562 90.804688 188.769531 90.742188 189.066406 C 90.683594 189.367188 90.65625 189.667969 90.65625 189.972656 L 90.65625 266.378906 C 90.65625 266.859375 90.703125 267.335938 90.796875 267.804688 C 90.890625 268.277344 91.027344 268.734375 91.210938 269.179688 C 91.394531 269.621094 91.621094 270.042969 91.886719 270.445312 C 92.15625 270.84375 92.457031 271.214844 92.796875 271.554688 C 93.136719 271.894531 93.507812 272.195312 93.90625 272.464844 C 94.308594 272.730469 94.730469 272.957031 95.171875 273.140625 C 95.617188 273.324219 96.074219 273.464844 96.546875 273.558594 C 97.019531 273.652344 97.492188 273.699219 97.972656 273.699219 C 98.457031 273.699219 98.929688 273.652344 99.402344 273.558594 C 99.875 273.464844 100.332031 273.324219 100.777344 273.140625 C 101.21875 272.957031 101.640625 272.730469 102.042969 272.464844 C 102.441406 272.195312 102.8125 271.894531 103.152344 271.554688 C 103.492188 271.214844 103.792969 270.84375 104.0625 270.445312 C 104.328125 270.042969 104.554688 269.621094 104.738281 269.179688 C 104.921875 268.734375 105.058594 268.277344 105.152344 267.804688 C 105.246094 267.335938 105.292969 266.859375 105.292969 266.378906 L 105.292969 206.71875 C 105.292969 206.339844 105.332031 205.964844 105.40625 205.59375 C 105.480469 205.222656 105.589844 204.863281 105.734375 204.511719 C 105.878906 204.164062 106.054688 203.832031 106.265625 203.515625 C 106.476562 203.203125 106.714844 202.910156 106.984375 202.640625 C 107.25 202.375 107.542969 202.136719 107.855469 201.925781 C 108.171875 201.714844 108.503906 201.539062 108.851562 201.394531 C 109.203125 201.246094 109.5625 201.136719 109.933594 201.066406 C 110.304688 200.992188 110.679688 200.953125 111.058594 200.953125 L 191.191406 201.023438 L 191.191406 189.972656 C 191.191406 189.667969 191.164062 189.367188 191.105469 189.070312 C 191.046875 188.769531 190.960938 188.480469 190.84375 188.199219 C 190.730469 187.917969 190.589844 187.648438 190.417969 187.394531 C 190.25 187.140625 190.058594 186.90625 189.84375 186.691406 C 189.628906 186.476562 189.398438 186.28125 189.144531 186.113281 C 188.890625 185.945312 188.625 185.800781 188.34375 185.683594 C 188.0625 185.566406 187.773438 185.480469 187.472656 185.417969 C 187.175781 185.359375 186.875 185.332031 186.570312 185.332031 L 144.226562 185.332031 C 143.871094 185.332031 143.523438 185.273438 143.1875 185.15625 C 142.847656 185.035156 142.542969 184.863281 142.265625 184.640625 C 141.988281 184.414062 141.757812 184.148438 141.570312 183.84375 C 141.386719 183.539062 141.257812 183.210938 141.183594 182.859375 Z M 141.183594 182.859375" fill="#f9a01e"/><g clip-path="url(#9aefed3f0e)"><path fill-rule="nonzero" fill-opacity="1" d="M 97.972656 275.070312 C 97.402344 275.070312 96.839844 275.015625 96.277344 274.902344 C 95.71875 274.792969 95.175781 274.625 94.648438 274.410156 C 94.121094 274.191406 93.621094 273.921875 93.144531 273.605469 C 92.671875 273.289062 92.230469 272.925781 91.828125 272.523438 C 91.425781 272.121094 91.0625 271.679688 90.746094 271.207031 C 90.429688 270.730469 90.160156 270.230469 89.945312 269.703125 C 89.726562 269.175781 89.558594 268.632812 89.449219 268.074219 C 89.335938 267.511719 89.28125 266.949219 89.28125 266.378906 L 89.28125 189.972656 C 89.28125 189.578125 89.320312 189.1875 89.398438 188.800781 C 89.472656 188.414062 89.589844 188.035156 89.738281 187.671875 C 89.890625 187.304688 90.078125 186.960938 90.296875 186.632812 C 90.515625 186.304688 90.765625 186 91.042969 185.71875 C 91.324219 185.441406 91.628906 185.191406 91.957031 184.972656 C 92.285156 184.753906 92.628906 184.566406 92.996094 184.414062 C 93.359375 184.265625 93.738281 184.148438 94.125 184.074219 C 94.511719 183.996094 94.902344 183.957031 95.296875 183.957031 L 102.914062 183.957031 C 103.324219 183.957031 103.6875 183.828125 104.003906 183.570312 C 104.320312 183.3125 104.523438 182.984375 104.609375 182.585938 L 104.609375 182.492188 L 105.914062 178.789062 C 106.066406 178.109375 106.328125 177.480469 106.695312 176.890625 C 107.0625 176.304688 107.519531 175.792969 108.0625 175.359375 C 108.605469 174.929688 109.203125 174.597656 109.859375 174.371094 C 110.515625 174.140625 111.1875 174.027344 111.882812 174.03125 L 135.238281 174.03125 C 135.929688 174.03125 136.601562 174.144531 137.253906 174.375 C 137.90625 174.605469 138.503906 174.9375 139.042969 175.367188 C 139.585938 175.800781 140.039062 176.308594 140.40625 176.894531 C 140.773438 177.480469 141.03125 178.113281 141.183594 178.789062 L 142.511719 182.492188 L 142.511719 182.585938 C 142.601562 182.984375 142.808594 183.316406 143.128906 183.570312 C 143.449219 183.828125 143.816406 183.957031 144.226562 183.957031 L 186.570312 183.957031 C 186.964844 183.957031 187.355469 183.996094 187.742188 184.074219 C 188.128906 184.152344 188.503906 184.265625 188.867188 184.414062 C 189.234375 184.566406 189.578125 184.753906 189.90625 184.972656 C 190.234375 185.191406 190.539062 185.441406 190.816406 185.722656 C 191.09375 186 191.34375 186.304688 191.5625 186.632812 C 191.777344 186.960938 191.964844 187.308594 192.113281 187.671875 C 192.261719 188.039062 192.375 188.414062 192.453125 188.800781 C 192.527344 189.1875 192.566406 189.578125 192.5625 189.972656 L 192.5625 202.394531 L 111.058594 202.328125 C 110.769531 202.328125 110.484375 202.355469 110.203125 202.414062 C 109.921875 202.472656 109.648438 202.554688 109.382812 202.667969 C 109.117188 202.777344 108.863281 202.914062 108.625 203.074219 C 108.386719 203.234375 108.164062 203.414062 107.960938 203.621094 C 107.757812 203.824219 107.574219 204.042969 107.414062 204.285156 C 107.253906 204.523438 107.117188 204.777344 107.007812 205.042969 C 106.898438 205.308594 106.8125 205.582031 106.753906 205.863281 C 106.699219 206.144531 106.667969 206.429688 106.667969 206.71875 L 106.667969 266.378906 C 106.671875 267.527344 106.457031 268.636719 106.015625 269.699219 C 105.574219 270.761719 104.945312 271.699219 104.128906 272.507812 C 103.316406 273.332031 102.375 273.964844 101.308594 274.40625 C 100.242188 274.851562 99.128906 275.074219 97.972656 275.070312 Z M 95.296875 186.703125 C 94.863281 186.703125 94.445312 186.785156 94.046875 186.953125 C 93.644531 187.117188 93.292969 187.355469 92.984375 187.660156 C 92.679688 187.96875 92.441406 188.320312 92.277344 188.722656 C 92.109375 189.121094 92.027344 189.539062 92.027344 189.972656 L 92.027344 266.378906 C 92.027344 266.769531 92.066406 267.15625 92.140625 267.539062 C 92.21875 267.921875 92.332031 268.292969 92.480469 268.652344 C 92.628906 269.015625 92.8125 269.355469 93.027344 269.683594 C 93.246094 270.007812 93.492188 270.308594 93.769531 270.582031 C 94.046875 270.859375 94.34375 271.105469 94.671875 271.324219 C 94.996094 271.539062 95.335938 271.722656 95.699219 271.871094 C 96.058594 272.023438 96.429688 272.132812 96.8125 272.210938 C 97.195312 272.285156 97.582031 272.324219 97.972656 272.324219 C 98.363281 272.324219 98.75 272.285156 99.132812 272.210938 C 99.519531 272.132812 99.890625 272.023438 100.25 271.871094 C 100.609375 271.722656 100.953125 271.539062 101.277344 271.324219 C 101.601562 271.105469 101.902344 270.859375 102.179688 270.582031 C 102.457031 270.308594 102.703125 270.007812 102.917969 269.683594 C 103.136719 269.355469 103.320312 269.015625 103.46875 268.652344 C 103.617188 268.292969 103.730469 267.921875 103.808594 267.539062 C 103.882812 267.15625 103.921875 266.769531 103.921875 266.378906 L 103.921875 206.71875 C 103.921875 206.25 103.96875 205.785156 104.058594 205.324219 C 104.152344 204.867188 104.285156 204.421875 104.464844 203.988281 C 104.644531 203.554688 104.863281 203.144531 105.125 202.753906 C 105.386719 202.363281 105.679688 202.003906 106.011719 201.671875 C 106.34375 201.339844 106.703125 201.042969 107.09375 200.785156 C 107.484375 200.523438 107.894531 200.304688 108.328125 200.125 C 108.761719 199.945312 109.207031 199.808594 109.667969 199.71875 C 110.125 199.628906 110.589844 199.582031 111.058594 199.582031 L 189.816406 199.628906 L 189.816406 189.972656 C 189.816406 189.542969 189.734375 189.125 189.570312 188.726562 C 189.40625 188.328125 189.171875 187.976562 188.867188 187.667969 C 188.5625 187.363281 188.210938 187.125 187.816406 186.957031 C 187.417969 186.789062 187 186.707031 186.570312 186.703125 L 144.226562 186.703125 C 143.722656 186.703125 143.230469 186.621094 142.753906 186.453125 C 142.277344 186.289062 141.839844 186.050781 141.441406 185.734375 C 141.046875 185.421875 140.710938 185.050781 140.441406 184.625 C 140.167969 184.199219 139.976562 183.742188 139.859375 183.25 L 138.554688 179.542969 L 138.554688 179.449219 C 138.472656 179.070312 138.332031 178.71875 138.128906 178.386719 C 137.925781 178.054688 137.671875 177.769531 137.371094 177.527344 C 137.070312 177.28125 136.734375 177.09375 136.367188 176.96875 C 136.003906 176.839844 135.625 176.773438 135.238281 176.773438 L 111.882812 176.773438 C 111.496094 176.777344 111.125 176.84375 110.761719 176.972656 C 110.402344 177.105469 110.070312 177.292969 109.773438 177.535156 C 109.476562 177.777344 109.226562 178.0625 109.027344 178.394531 C 108.828125 178.722656 108.691406 179.074219 108.613281 179.449219 L 108.613281 179.542969 L 107.261719 183.25 C 107.148438 183.738281 106.957031 184.199219 106.6875 184.625 C 106.417969 185.050781 106.085938 185.421875 105.691406 185.734375 C 105.296875 186.046875 104.863281 186.289062 104.386719 186.453125 C 103.910156 186.621094 103.417969 186.703125 102.914062 186.703125 Z M 95.296875 186.703125" fill="#000000"/></g><path fill-rule="nonzero" fill-opacity="1" d="M 97.972656 192.765625 L 180.804688 192.765625 L 180.804688 260.589844 L 97.972656 260.589844 Z M 97.972656 192.765625" fill="#e0e0e0"/><path fill-rule="nonzero" fill-opacity="1" d="M 180.804688 261.960938 L 97.972656 261.960938 C 97.792969 261.960938 97.617188 261.925781 97.449219 261.859375 C 97.28125 261.789062 97.132812 261.6875 97.003906 261.558594 C 96.875 261.433594 96.777344 261.285156 96.707031 261.113281 C 96.636719 260.945312 96.601562 260.773438 96.601562 260.589844 L 96.601562 192.765625 C 96.601562 192.582031 96.636719 192.40625 96.707031 192.238281 C 96.777344 192.070312 96.875 191.921875 97.003906 191.792969 C 97.132812 191.664062 97.28125 191.566406 97.449219 191.496094 C 97.617188 191.425781 97.792969 191.390625 97.972656 191.390625 L 180.804688 191.390625 C 180.988281 191.390625 181.164062 191.425781 181.332031 191.496094 C 181.5 191.566406 181.648438 191.664062 181.777344 191.792969 C 181.90625 191.921875 182.003906 192.070312 182.074219 192.238281 C 182.144531 192.40625 182.175781 192.582031 182.175781 192.765625 L 182.175781 260.589844 C 182.175781 260.773438 182.144531 260.945312 182.074219 261.113281 C 182.003906 261.285156 181.90625 261.433594 181.777344 261.558594 C 181.648438 261.6875 181.5 261.789062 181.332031 261.859375 C 181.164062 261.925781 180.988281 261.960938 180.804688 261.960938 Z M 99.347656 259.21875 L 179.433594 259.21875 L 179.433594 194.136719 L 99.347656 194.136719 Z M 99.347656 259.21875" fill="#000000"/><path fill-rule="nonzero" fill-opacity="1" d="M 199.496094 206.421875 L 199.496094 264.867188 C 199.496094 265.445312 199.441406 266.019531 199.328125 266.589844 C 199.21875 267.15625 199.050781 267.710938 198.832031 268.246094 C 198.609375 268.78125 198.339844 269.289062 198.019531 269.773438 C 197.695312 270.253906 197.332031 270.699219 196.921875 271.109375 C 196.515625 271.519531 196.070312 271.886719 195.585938 272.207031 C 195.105469 272.53125 194.597656 272.804688 194.0625 273.023438 C 193.527344 273.246094 192.976562 273.414062 192.40625 273.527344 C 191.839844 273.640625 191.265625 273.699219 190.6875 273.699219 L 97.972656 273.699219 C 98.453125 273.695312 98.929688 273.648438 99.402344 273.554688 C 99.871094 273.457031 100.328125 273.320312 100.773438 273.132812 C 101.214844 272.949219 101.636719 272.722656 102.035156 272.457031 C 102.433594 272.191406 102.804688 271.886719 103.144531 271.546875 C 103.484375 271.207031 103.785156 270.839844 104.054688 270.4375 C 104.320312 270.039062 104.546875 269.617188 104.730469 269.175781 C 104.914062 268.730469 105.054688 268.273438 105.148438 267.804688 C 105.246094 267.332031 105.292969 266.859375 105.292969 266.378906 L 105.292969 206.421875 C 105.292969 206.0625 105.328125 205.707031 105.398438 205.355469 C 105.46875 205.003906 105.574219 204.660156 105.710938 204.328125 C 105.847656 203.996094 106.015625 203.683594 106.214844 203.382812 C 106.414062 203.085938 106.640625 202.808594 106.894531 202.554688 C 107.148438 202.300781 107.425781 202.074219 107.722656 201.875 C 108.023438 201.675781 108.335938 201.507812 108.667969 201.371094 C 109 201.234375 109.34375 201.128906 109.695312 201.058594 C 110.046875 200.988281 110.402344 200.953125 110.761719 200.953125 L 194.027344 200.953125 C 194.386719 200.953125 194.742188 200.988281 195.09375 201.058594 C 195.445312 201.128906 195.789062 201.234375 196.121094 201.371094 C 196.449219 201.507812 196.765625 201.675781 197.0625 201.875 C 197.363281 202.074219 197.640625 202.300781 197.894531 202.554688 C 198.148438 202.808594 198.375 203.085938 198.574219 203.382812 C 198.773438 203.683594 198.941406 203.996094 199.078125 204.328125 C 199.214844 204.660156 199.320312 205.003906 199.390625 205.355469 C 199.460938 205.707031 199.496094 206.0625 199.496094 206.421875 Z M 199.496094 206.421875" fill="#ffbb26"/><path fill-rule="nonzero" fill-opacity="1" d="M 199.496094 206.421875 L 199.496094 264.867188 C 199.496094 265.445312 199.441406 266.019531 199.328125 266.589844 C 199.21875 267.15625 199.050781 267.710938 198.832031 268.246094 C 198.609375 268.78125 198.339844 269.289062 198.019531 269.773438 C 197.695312 270.253906 197.332031 270.699219 196.921875 271.109375 C 196.515625 271.519531 196.070312 271.886719 195.585938 272.207031 C 195.105469 272.53125 194.597656 272.804688 194.0625 273.023438 C 193.527344 273.246094 192.976562 273.414062 192.40625 273.527344 C 191.839844 273.640625 191.265625 273.699219 190.6875 273.699219 L 138.027344 273.699219 C 169.597656 266.238281 193.066406 237.898438 193.066406 204.066406 C 193.066406 203.035156 193.042969 201.984375 192.996094 200.953125 L 194.027344 200.953125 C 194.386719 200.953125 194.742188 200.988281 195.09375 201.058594 C 195.445312 201.128906 195.789062 201.234375 196.121094 201.371094 C 196.449219 201.507812 196.765625 201.675781 197.0625 201.875 C 197.363281 202.074219 197.640625 202.300781 197.894531 202.554688 C 198.148438 202.808594 198.375 203.085938 198.574219 203.382812 C 198.773438 203.683594 198.941406 203.996094 199.078125 204.328125 C 199.214844 204.660156 199.320312 205.003906 199.390625 205.355469 C 199.460938 205.707031 199.496094 206.0625 199.496094 206.421875 Z M 199.496094 206.421875" fill="#f9a01e"/><path fill-rule="nonzero" fill-opacity="1" d="M 190.6875 275.070312 L 97.972656 275.070312 L 97.972656 272.324219 C 98.367188 272.328125 98.753906 272.289062 99.136719 272.214844 C 99.519531 272.140625 99.890625 272.027344 100.253906 271.878906 C 100.617188 271.730469 100.957031 271.546875 101.285156 271.328125 C 101.609375 271.113281 101.910156 270.867188 102.1875 270.589844 C 102.464844 270.3125 102.710938 270.011719 102.925781 269.6875 C 103.144531 269.363281 103.328125 269.019531 103.476562 268.65625 C 103.625 268.296875 103.738281 267.921875 103.8125 267.539062 C 103.886719 267.15625 103.921875 266.769531 103.921875 266.378906 L 103.921875 206.421875 C 103.921875 205.972656 103.964844 205.527344 104.054688 205.085938 C 104.140625 204.644531 104.269531 204.21875 104.441406 203.804688 C 104.613281 203.390625 104.824219 202.996094 105.074219 202.621094 C 105.324219 202.246094 105.609375 201.902344 105.925781 201.585938 C 106.242188 201.265625 106.589844 200.984375 106.960938 200.734375 C 107.335938 200.484375 107.730469 200.273438 108.144531 200.101562 C 108.558594 199.929688 108.988281 199.800781 109.425781 199.710938 C 109.867188 199.625 110.3125 199.582031 110.761719 199.582031 L 194.027344 199.582031 C 194.476562 199.582031 194.921875 199.625 195.363281 199.710938 C 195.800781 199.800781 196.230469 199.929688 196.644531 200.101562 C 197.058594 200.273438 197.453125 200.484375 197.828125 200.734375 C 198.199219 200.984375 198.546875 201.265625 198.863281 201.585938 C 199.179688 201.902344 199.464844 202.246094 199.714844 202.621094 C 199.964844 202.996094 200.175781 203.390625 200.347656 203.804688 C 200.519531 204.21875 200.648438 204.644531 200.734375 205.085938 C 200.824219 205.527344 200.867188 205.972656 200.867188 206.421875 L 200.867188 264.867188 C 200.867188 265.535156 200.800781 266.199219 200.671875 266.855469 C 200.539062 267.511719 200.347656 268.148438 200.09375 268.765625 C 199.835938 269.386719 199.523438 269.972656 199.152344 270.527344 C 198.78125 271.085938 198.359375 271.601562 197.886719 272.074219 C 197.414062 272.546875 196.898438 272.96875 196.34375 273.34375 C 195.789062 273.714844 195.203125 274.03125 194.585938 274.285156 C 193.96875 274.542969 193.332031 274.738281 192.675781 274.871094 C 192.019531 275 191.355469 275.070312 190.6875 275.070312 Z M 104.3125 272.324219 L 190.6875 272.324219 C 191.175781 272.324219 191.660156 272.273438 192.140625 272.179688 C 192.617188 272.082031 193.082031 271.9375 193.535156 271.75 C 193.984375 271.5625 194.414062 271.332031 194.820312 271.058594 C 195.226562 270.789062 195.601562 270.480469 195.945312 270.132812 C 196.289062 269.785156 196.597656 269.410156 196.871094 269.003906 C 197.140625 268.597656 197.371094 268.167969 197.554688 267.714844 C 197.742188 267.265625 197.882812 266.800781 197.980469 266.320312 C 198.074219 265.839844 198.121094 265.355469 198.121094 264.867188 L 198.121094 206.421875 C 198.121094 206.152344 198.09375 205.886719 198.042969 205.621094 C 197.992188 205.359375 197.914062 205.101562 197.808594 204.855469 C 197.707031 204.605469 197.582031 204.371094 197.429688 204.144531 C 197.28125 203.921875 197.113281 203.714844 196.921875 203.527344 C 196.730469 203.335938 196.527344 203.164062 196.300781 203.015625 C 196.078125 202.867188 195.84375 202.742188 195.59375 202.636719 C 195.34375 202.535156 195.089844 202.457031 194.824219 202.40625 C 194.5625 202.351562 194.296875 202.328125 194.027344 202.328125 L 110.761719 202.328125 C 110.492188 202.328125 110.226562 202.351562 109.960938 202.40625 C 109.699219 202.457031 109.441406 202.535156 109.195312 202.636719 C 108.945312 202.742188 108.710938 202.867188 108.488281 203.015625 C 108.261719 203.164062 108.054688 203.335938 107.867188 203.527344 C 107.675781 203.714844 107.507812 203.921875 107.355469 204.144531 C 107.207031 204.371094 107.082031 204.605469 106.980469 204.855469 C 106.875 205.101562 106.796875 205.359375 106.746094 205.621094 C 106.691406 205.886719 106.667969 206.152344 106.667969 206.421875 L 106.667969 266.378906 C 106.671875 267.484375 106.46875 268.550781 106.0625 269.578125 C 105.65625 270.605469 105.070312 271.523438 104.3125 272.324219 Z M 104.3125 272.324219" fill="#000000"/><path fill-rule="nonzero" fill-opacity="1" d="M 206.929688 259.171875 C 206.929688 260.210938 206.878906 261.25 206.777344 262.285156 C 206.671875 263.320312 206.519531 264.347656 206.320312 265.367188 C 206.117188 266.386719 205.863281 267.394531 205.5625 268.386719 C 205.257812 269.382812 204.910156 270.363281 204.511719 271.324219 C 204.113281 272.28125 203.667969 273.222656 203.179688 274.140625 C 202.6875 275.054688 202.15625 275.945312 201.578125 276.8125 C 201 277.675781 200.382812 278.511719 199.722656 279.3125 C 199.0625 280.117188 198.363281 280.886719 197.628906 281.621094 C 196.894531 282.359375 196.125 283.054688 195.320312 283.714844 C 194.515625 284.375 193.683594 284.992188 192.816406 285.570312 C 191.953125 286.148438 191.0625 286.683594 190.144531 287.171875 C 189.226562 287.664062 188.289062 288.109375 187.328125 288.503906 C 186.367188 288.902344 185.390625 289.253906 184.394531 289.554688 C 183.398438 289.855469 182.390625 290.109375 181.371094 290.3125 C 180.351562 290.515625 179.324219 290.667969 178.289062 290.769531 C 177.253906 290.871094 176.21875 290.921875 175.179688 290.921875 C 174.136719 290.921875 173.101562 290.871094 172.066406 290.769531 C 171.03125 290.667969 170.003906 290.515625 168.984375 290.3125 C 167.964844 290.109375 166.957031 289.855469 165.960938 289.554688 C 164.964844 289.253906 163.988281 288.902344 163.027344 288.503906 C 162.066406 288.109375 161.128906 287.664062 160.210938 287.171875 C 159.292969 286.683594 158.402344 286.148438 157.539062 285.570312 C 156.671875 284.992188 155.839844 284.375 155.035156 283.714844 C 154.230469 283.054688 153.460938 282.359375 152.726562 281.621094 C 151.992188 280.886719 151.292969 280.117188 150.632812 279.3125 C 149.976562 278.511719 149.355469 277.675781 148.777344 276.8125 C 148.199219 275.945312 147.667969 275.054688 147.175781 274.140625 C 146.6875 273.222656 146.242188 272.28125 145.84375 271.320312 C 145.445312 270.363281 145.097656 269.382812 144.792969 268.386719 C 144.492188 267.394531 144.238281 266.386719 144.039062 265.367188 C 143.835938 264.347656 143.683594 263.320312 143.582031 262.285156 C 143.476562 261.25 143.425781 260.210938 143.425781 259.171875 C 143.425781 258.132812 143.476562 257.09375 143.582031 256.058594 C 143.683594 255.023438 143.835938 253.996094 144.039062 252.976562 C 144.238281 251.957031 144.492188 250.949219 144.792969 249.953125 C 145.097656 248.960938 145.445312 247.980469 145.84375 247.019531 C 146.242188 246.058594 146.6875 245.121094 147.175781 244.203125 C 147.667969 243.289062 148.199219 242.394531 148.777344 241.53125 C 149.355469 240.667969 149.976562 239.832031 150.632812 239.027344 C 151.292969 238.226562 151.992188 237.457031 152.726562 236.71875 C 153.460938 235.984375 154.230469 235.289062 155.035156 234.628906 C 155.839844 233.96875 156.671875 233.347656 157.539062 232.773438 C 158.402344 232.195312 159.292969 231.660156 160.210938 231.167969 C 161.128906 230.679688 162.066406 230.234375 163.027344 229.835938 C 163.988281 229.441406 164.964844 229.089844 165.960938 228.789062 C 166.957031 228.484375 167.964844 228.234375 168.984375 228.03125 C 170.003906 227.828125 171.03125 227.675781 172.066406 227.574219 C 173.101562 227.472656 174.136719 227.421875 175.179688 227.421875 C 176.21875 227.421875 177.253906 227.472656 178.289062 227.574219 C 179.324219 227.675781 180.351562 227.828125 181.371094 228.03125 C 182.390625 228.234375 183.398438 228.484375 184.394531 228.789062 C 185.390625 229.089844 186.367188 229.441406 187.328125 229.835938 C 188.289062 230.234375 189.226562 230.679688 190.144531 231.167969 C 191.0625 231.660156 191.953125 232.195312 192.816406 232.773438 C 193.683594 233.347656 194.515625 233.96875 195.320312 234.628906 C 196.125 235.289062 196.894531 235.984375 197.628906 236.71875 C 198.363281 237.457031 199.0625 238.226562 199.722656 239.027344 C 200.382812 239.832031 201 240.667969 201.578125 241.53125 C 202.15625 242.394531 202.6875 243.289062 203.179688 244.203125 C 203.667969 245.121094 204.113281 246.058594 204.511719 247.019531 C 204.910156 247.980469 205.257812 248.960938 205.5625 249.953125 C 205.863281 250.949219 206.117188 251.957031 206.320312 252.976562 C 206.519531 253.996094 206.671875 255.023438 206.777344 256.058594 C 206.878906 257.09375 206.929688 258.132812 206.929688 259.171875 Z M 206.929688 259.171875" fill="#65afd6"/><g clip-path="url(#0501d53a7e)"><path fill-rule="nonzero" fill-opacity="1" d="M 175.179688 292.316406 C 156.921875 292.316406 142.054688 277.449219 142.054688 259.171875 C 142.054688 240.894531 156.921875 226.046875 175.179688 226.046875 C 193.433594 226.046875 208.300781 240.917969 208.300781 259.171875 C 208.300781 277.425781 193.457031 292.316406 175.179688 292.316406 Z M 175.179688 228.792969 C 158.433594 228.792969 144.800781 242.425781 144.800781 259.171875 C 144.800781 275.917969 158.433594 289.574219 175.179688 289.574219 C 191.921875 289.574219 205.554688 275.9375 205.554688 259.171875 C 205.554688 258.175781 205.503906 257.183594 205.40625 256.195312 C 205.308594 255.203125 205.164062 254.222656 204.96875 253.246094 C 204.773438 252.269531 204.53125 251.308594 204.242188 250.355469 C 203.953125 249.402344 203.617188 248.46875 203.238281 247.550781 C 202.855469 246.632812 202.429688 245.734375 201.960938 244.855469 C 201.492188 243.980469 200.980469 243.125 200.429688 242.300781 C 199.875 241.472656 199.285156 240.675781 198.652344 239.90625 C 198.023438 239.136719 197.355469 238.402344 196.652344 237.699219 C 195.949219 236.996094 195.210938 236.328125 194.445312 235.695312 C 193.675781 235.066406 192.875 234.472656 192.050781 233.921875 C 191.222656 233.367188 190.371094 232.855469 189.492188 232.386719 C 188.617188 231.917969 187.71875 231.492188 186.800781 231.113281 C 185.878906 230.730469 184.945312 230.394531 183.992188 230.105469 C 183.042969 229.816406 182.078125 229.574219 181.101562 229.378906 C 180.128906 229.1875 179.144531 229.039062 178.15625 228.941406 C 177.164062 228.84375 176.171875 228.792969 175.179688 228.792969 Z M 175.179688 228.792969" fill="#000000"/></g><path fill-rule="nonzero" fill-opacity="1" d="M 193.636719 254.824219 L 179.546875 254.824219 L 179.546875 240.710938 L 170.808594 240.710938 L 170.808594 254.824219 L 156.71875 254.824219 L 156.71875 263.539062 L 170.808594 263.539062 L 170.808594 277.632812 L 179.546875 277.632812 L 179.546875 263.539062 L 193.636719 263.539062 Z M 193.636719 254.824219" fill="#4a6792"/><path fill-rule="nonzero" fill-opacity="1" d="M 179.546875 279.003906 L 170.808594 279.003906 C 170.625 279.003906 170.453125 278.96875 170.285156 278.898438 C 170.117188 278.832031 169.96875 278.730469 169.839844 278.601562 C 169.710938 278.472656 169.609375 278.324219 169.539062 278.15625 C 169.472656 277.988281 169.4375 277.8125 169.4375 277.632812 L 169.4375 264.914062 L 156.71875 264.914062 C 156.535156 264.914062 156.359375 264.878906 156.191406 264.808594 C 156.023438 264.738281 155.875 264.640625 155.746094 264.511719 C 155.617188 264.382812 155.519531 264.234375 155.449219 264.066406 C 155.378906 263.898438 155.34375 263.722656 155.34375 263.539062 L 155.34375 254.824219 C 155.34375 254.644531 155.378906 254.46875 155.449219 254.300781 C 155.519531 254.132812 155.617188 253.984375 155.746094 253.855469 C 155.875 253.726562 156.023438 253.628906 156.191406 253.558594 C 156.359375 253.488281 156.535156 253.453125 156.71875 253.453125 L 169.4375 253.453125 L 169.4375 240.710938 C 169.4375 240.53125 169.472656 240.355469 169.539062 240.1875 C 169.609375 240.019531 169.710938 239.871094 169.839844 239.742188 C 169.96875 239.613281 170.117188 239.511719 170.285156 239.441406 C 170.453125 239.375 170.625 239.339844 170.808594 239.339844 L 179.546875 239.339844 C 179.730469 239.339844 179.902344 239.375 180.074219 239.441406 C 180.242188 239.511719 180.390625 239.613281 180.515625 239.742188 C 180.644531 239.871094 180.746094 240.019531 180.816406 240.1875 C 180.882812 240.355469 180.917969 240.527344 180.917969 240.710938 L 180.917969 253.453125 L 193.636719 253.453125 C 193.820312 253.453125 193.996094 253.488281 194.164062 253.558594 C 194.332031 253.628906 194.480469 253.726562 194.609375 253.855469 C 194.738281 253.984375 194.835938 254.132812 194.90625 254.300781 C 194.976562 254.46875 195.011719 254.644531 195.011719 254.824219 L 195.011719 263.539062 C 195.011719 263.722656 194.976562 263.898438 194.90625 264.066406 C 194.835938 264.234375 194.738281 264.382812 194.609375 264.511719 C 194.480469 264.640625 194.332031 264.738281 194.164062 264.808594 C 193.996094 264.878906 193.820312 264.914062 193.636719 264.914062 L 180.917969 264.914062 L 180.917969 277.632812 C 180.917969 277.8125 180.882812 277.988281 180.816406 278.15625 C 180.746094 278.324219 180.644531 278.472656 180.515625 278.601562 C 180.390625 278.730469 180.242188 278.832031 180.074219 278.898438 C 179.902344 278.96875 179.730469 279.003906 179.546875 279.003906 Z M 172.179688 276.257812 L 178.175781 276.257812 L 178.175781 263.539062 C 178.175781 263.359375 178.210938 263.183594 178.277344 263.015625 C 178.347656 262.847656 178.449219 262.699219 178.578125 262.570312 C 178.707031 262.441406 178.855469 262.34375 179.023438 262.273438 C 179.191406 262.203125 179.363281 262.167969 179.546875 262.167969 L 192.265625 262.167969 L 192.265625 256.199219 L 179.546875 256.199219 C 179.363281 256.199219 179.191406 256.164062 179.023438 256.09375 C 178.855469 256.023438 178.707031 255.925781 178.578125 255.796875 C 178.449219 255.667969 178.347656 255.519531 178.277344 255.351562 C 178.210938 255.183594 178.175781 255.007812 178.175781 254.824219 L 178.175781 242.082031 L 172.179688 242.082031 L 172.179688 254.824219 C 172.179688 255.007812 172.144531 255.183594 172.078125 255.351562 C 172.007812 255.519531 171.90625 255.667969 171.777344 255.796875 C 171.652344 255.925781 171.503906 256.023438 171.335938 256.09375 C 171.164062 256.164062 170.992188 256.199219 170.808594 256.199219 L 158.089844 256.199219 L 158.089844 262.167969 L 170.808594 262.167969 C 170.992188 262.167969 171.164062 262.203125 171.335938 262.273438 C 171.503906 262.34375 171.652344 262.441406 171.777344 262.570312 C 171.90625 262.699219 172.007812 262.847656 172.078125 263.015625 C 172.144531 263.183594 172.179688 263.359375 172.179688 263.539062 Z M 172.179688 276.257812" fill="#000000"/></svg>